# Blender v3.0.1 OBJ File: ''
# www.blender.org
mtllib standard.mtl
o Icosphere
v 0.000000 -0.544270 0.000000
v 0.534038 -0.002987 0.402007
v -0.230629 -0.002987 0.650467
v -0.630773 -0.002987 -0.000000
v -0.230629 -0.002987 -0.650467
v 0.534038 -0.002987 -0.402007
v 0.276388 0.373057 0.850649
v -0.723607 0.398690 0.525725
v -0.723607 0.398690 -0.525725
v 0.276388 0.373057 -0.850649
v 0.894426 0.373057 0.000000
v 0.000000 0.451710 0.000000
v -0.108631 -0.284935 0.313760
v 0.260215 -0.284935 0.193913
v 0.181725 -0.002987 0.618628
v 0.631182 -0.002987 -0.000000
v 0.260215 -0.284935 -0.193913
v -0.303165 -0.284934 0.000000
v -0.485329 -0.002987 0.352611
v -0.108631 -0.284935 -0.313760
v -0.485329 -0.002987 -0.352611
v 0.181725 -0.002987 -0.618628
v 0.951058 0.256913 0.309013
v 0.951058 0.256913 -0.309013
v 0.000000 0.256913 1.000000
v 0.587786 0.256913 0.809017
v -0.951058 0.320995 0.309013
v -0.587786 0.320995 0.809017
v -0.587786 0.320995 -0.809017
v -0.951058 0.320995 -0.309013
v 0.587786 0.256913 -0.809017
v 0.000000 0.256913 -1.000000
v 0.688189 0.373057 0.499997
v -0.262869 0.373057 0.809012
v -0.850648 0.398690 0.000000
v -0.262869 0.373057 -0.809012
v 0.688189 0.373057 -0.499997
v 0.162456 0.451710 0.499995
v 0.525730 0.451710 0.000000
v -0.425323 0.451710 0.309011
v -0.425323 0.451710 -0.309011
v 0.162456 0.451710 -0.499995
vt 0.181819 0.000000
vt 0.227273 0.078731
vt 0.136365 0.078731
vt 0.272728 0.157461
vt 0.318182 0.078731
vt 0.363637 0.157461
vt 0.909091 0.000000
vt 0.954545 0.078731
vt 0.863636 0.078731
vt 0.727273 0.000000
vt 0.772727 0.078731
vt 0.681818 0.078731
vt 0.545455 0.000000
vt 0.590909 0.078731
vt 0.500000 0.078731
vt 0.318182 0.236191
vt 0.090910 0.157461
vt 0.181819 0.157461
vt 0.136365 0.236191
vt 0.818182 0.157461
vt 0.909091 0.157461
vt 0.863636 0.236191
vt 0.636364 0.157461
vt 0.727273 0.157461
vt 0.681818 0.236191
vt 0.454546 0.157461
vt 0.545455 0.157461
vt 0.500000 0.236191
vt 0.227273 0.236191
vt 0.045455 0.236191
vt 0.772727 0.236191
vt 0.590909 0.236191
vt 0.409092 0.236191
vt 0.181819 0.314921
vt 0.272728 0.314921
vt 0.227273 0.393651
vt 0.000000 0.314921
vt 0.090910 0.314921
vt 0.045455 0.393651
vt 0.727273 0.314921
vt 0.818182 0.314921
vt 0.772727 0.393651
vt 0.545455 0.314921
vt 0.636364 0.314921
vt 0.590909 0.393651
vt 0.363637 0.314921
vt 0.454546 0.314921
vt 0.409092 0.393651
vt 0.500000 0.393651
vt 0.454546 0.472382
vt 0.681818 0.393651
vt 0.636364 0.472382
vt 0.863636 0.393651
vt 0.818182 0.472382
vt 0.909091 0.314921
vt 0.136365 0.393651
vt 0.090910 0.472382
vt 0.318182 0.393651
vt 0.272728 0.472382
vt 0.954545 0.236191
vt 1.000000 0.157461
vt 0.409092 0.078731
vt 0.363637 0.000000
vn 0.2162 -0.7145 0.6654
vn 0.6482 -0.7452 0.1566
vn -0.6029 -0.7048 0.3738
vn -0.6029 -0.7048 -0.3738
vn 0.2162 -0.7145 -0.6654
vn 0.5453 -0.8278 0.1318
vn 0.0446 -0.8155 0.5770
vn -0.5698 -0.7875 0.2350
vn -0.4973 -0.7563 -0.4252
vn 0.2984 -0.8218 -0.4854
vn 0.5475 -0.7362 0.3978
vn -0.2958 -0.6627 0.6880
vn -0.7112 -0.7030 0.0000
vn -0.2958 -0.6627 -0.6880
vn 0.5475 -0.7362 -0.3978
vn 0.1458 0.9744 0.1712
vn -0.0505 0.9839 0.1712
vn -0.1494 0.9881 -0.0361
vn -0.0173 0.9744 -0.2242
vn 0.2079 0.9744 -0.0857
vn 0.0000 1.0000 0.0000
vn 0.1471 0.9833 -0.1069
vn 0.1458 0.9744 -0.1712
vn -0.0562 0.9833 -0.1729
vn -0.0505 0.9839 -0.1712
vn -0.1237 0.9923 0.0000
vn -0.1494 0.9881 0.0361
vn -0.0562 0.9833 0.1729
vn -0.0173 0.9744 0.2242
vn 0.1471 0.9833 0.1069
vn 0.2079 0.9744 0.0857
vn 0.5211 0.8260 -0.2149
vn 0.6120 0.6540 -0.4447
vn 0.3655 0.8260 -0.4292
vn -0.0434 0.8260 -0.5620
vn -0.1224 0.7642 -0.6332
vn -0.1495 0.9329 -0.3275
vn -0.4037 0.9097 -0.0975
vn -0.6120 0.7909 0.0000
vn -0.4037 0.9097 0.0975
vn -0.1495 0.9329 0.3275
vn -0.1224 0.7642 0.6332
vn -0.0434 0.8260 0.5620
vn 0.3655 0.8260 0.4292
vn 0.6120 0.6540 0.4447
vn 0.5211 0.8260 0.2149
vn 0.2778 0.4383 -0.8548
vn 0.1998 -0.7628 -0.6150
vn 0.0446 -0.8155 -0.5770
vn -0.6538 0.5890 -0.4750
vn -0.5486 -0.7350 -0.3986
vn -0.5698 -0.7875 -0.2350
vn -0.6538 0.5890 0.4750
vn -0.5486 -0.7350 0.3986
vn -0.4973 -0.7563 0.4252
vn 0.2778 0.4383 0.8548
vn 0.1998 -0.7628 0.6150
vn 0.2984 -0.8218 0.4854
vn 0.8988 0.4383 0.0000
vn 0.6306 -0.7761 0.0000
vn 0.5453 -0.8278 -0.1318
vn 0.3458 -0.7510 -0.5625
vn 0.1842 -0.8028 -0.5670
vn 0.0503 -0.7567 -0.6519
vn -0.5100 -0.7415 -0.4361
vn -0.5419 -0.7703 -0.3360
vn -0.6299 -0.7319 -0.2598
vn -0.6299 -0.7319 0.2598
vn -0.5419 -0.7703 0.3360
vn -0.5100 -0.7415 0.4361
vn 0.6482 -0.7452 -0.1566
vn 0.6051 -0.7961 0.0000
vn 0.7059 -0.7083 0.0000
vn 0.0503 -0.7567 0.6519
vn 0.1842 -0.8028 0.5670
vn 0.3458 -0.7510 0.5625
usemtl None
s off
f 1/1/1 14/2/1 13/3/1
f 2/4/2 14/5/2 16/6/2
f 1/7/3 13/8/3 18/9/3
f 1/10/4 18/11/4 20/12/4
f 1/13/5 20/14/5 17/15/5
f 2/4/6 16/6/6 23/16/6
f 3/17/7 15/18/7 25/19/7
f 4/20/8 19/21/8 27/22/8
f 5/23/9 21/24/9 29/25/9
f 6/26/10 22/27/10 31/28/10
f 2/4/11 23/16/11 26/29/11
f 3/17/12 25/19/12 28/30/12
f 4/20/13 27/22/13 30/31/13
f 5/23/14 29/25/14 32/32/14
f 6/26/15 31/28/15 24/33/15
f 7/34/16 33/35/16 38/36/16
f 8/37/17 34/38/17 40/39/17
f 9/40/18 35/41/18 41/42/18
f 10/43/19 36/44/19 42/45/19
f 11/46/20 37/47/20 39/48/20
f 39/48/21 42/49/21 12/50/21
f 39/48/22 37/47/22 42/49/22
f 37/47/23 10/43/23 42/49/23
f 42/45/21 41/51/21 12/52/21
f 42/45/24 36/44/24 41/51/24
f 36/44/25 9/40/25 41/51/25
f 41/42/21 40/53/21 12/54/21
f 41/42/26 35/41/26 40/53/26
f 35/41/27 8/55/27 40/53/27
f 40/39/21 38/56/21 12/57/21
f 40/39/28 34/38/28 38/56/28
f 34/38/29 7/34/29 38/56/29
f 38/36/21 39/58/21 12/59/21
f 38/36/30 33/35/30 39/58/30
f 33/35/31 11/46/31 39/58/31
f 24/33/32 37/47/32 11/46/32
f 24/33/33 31/28/33 37/47/33
f 31/28/34 10/43/34 37/47/34
f 32/32/35 36/44/35 10/43/35
f 32/32/36 29/25/36 36/44/36
f 29/25/37 9/40/37 36/44/37
f 30/31/38 35/41/38 9/40/38
f 30/31/39 27/22/39 35/41/39
f 27/22/40 8/55/40 35/41/40
f 28/30/41 34/38/41 8/37/41
f 28/30/42 25/19/42 34/38/42
f 25/19/43 7/34/43 34/38/43
f 26/29/44 33/35/44 7/34/44
f 26/29/45 23/16/45 33/35/45
f 23/16/46 11/46/46 33/35/46
f 31/28/47 32/32/47 10/43/47
f 31/28/48 22/27/48 32/32/48
f 22/27/49 5/23/49 32/32/49
f 29/25/50 30/31/50 9/40/50
f 29/25/51 21/24/51 30/31/51
f 21/24/52 4/20/52 30/31/52
f 27/22/53 28/60/53 8/55/53
f 27/22/54 19/21/54 28/60/54
f 19/21/55 3/61/55 28/60/55
f 25/19/56 26/29/56 7/34/56
f 25/19/57 15/18/57 26/29/57
f 15/18/58 2/4/58 26/29/58
f 23/16/59 24/33/59 11/46/59
f 23/16/60 16/6/60 24/33/60
f 16/6/61 6/26/61 24/33/61
f 17/15/62 22/27/62 6/26/62
f 17/15/63 20/14/63 22/27/63
f 20/14/64 5/23/64 22/27/64
f 20/12/65 21/24/65 5/23/65
f 20/12/66 18/11/66 21/24/66
f 18/11/67 4/20/67 21/24/67
f 18/9/68 19/21/68 4/20/68
f 18/9/69 13/8/69 19/21/69
f 13/8/70 3/61/70 19/21/70
f 16/6/71 17/62/71 6/26/71
f 16/6/72 14/5/72 17/62/72
f 14/5/73 1/63/73 17/62/73
f 13/3/74 15/18/74 3/17/74
f 13/3/75 14/2/75 15/18/75
f 14/2/76 2/4/76 15/18/76
