# Blender v2.79 (sub 0) OBJ File: 'sword_lp_greatsword.blend'
# www.blender.org
mtllib sword_lp_greatsword.mtl
o Cube_Cube.001
v 0.035000 0.025000 -0.000000
v 0.020000 1.250000 -0.000000
v 0.021213 0.225000 -0.000000
v 0.021213 0.075000 -0.000000
v 0.035000 0.275000 -0.000000
v 0.017678 -0.000000 -0.000000
v 0.000000 0.025000 -0.022097
v 0.000000 1.250000 -0.008839
v 0.000000 0.025000 0.022097
v 0.000000 1.250000 0.008839
v -0.035000 0.025000 -0.000000
v -0.020000 1.250000 -0.000000
v 0.000000 0.225000 -0.013258
v -0.021213 0.225000 -0.000000
v 0.000000 0.225000 0.013258
v 0.000000 0.075000 -0.013258
v -0.021213 0.075000 -0.000000
v 0.000000 0.075000 0.013258
v 0.000000 0.275000 -0.017678
v -0.035000 0.275000 -0.000000
v 0.000000 0.275000 0.017678
v 0.000000 1.300000 -0.000000
v 0.000000 -0.000000 -0.011049
v 0.000000 -0.000000 0.011049
v -0.017678 -0.000000 -0.000000
v 0.000000 0.250000 -0.020467
v 0.172181 0.273569 -0.000000
v 0.000000 0.250000 0.020467
v -0.172181 0.273569 -0.000000
v 0.000000 0.500000 -0.016463
v 0.065879 0.500000 -0.000000
v 0.000000 0.500000 0.016463
v -0.065879 0.500000 -0.000000
v 0.000000 0.475000 -0.017072
v 0.033972 0.475000 -0.000000
v 0.000000 0.475000 0.017072
v -0.033972 0.475000 -0.000000
v 0.000000 0.525000 -0.016270
v 0.032611 0.525000 -0.000000
v 0.000000 0.525000 0.016270
v -0.032611 0.525000 -0.000000
vt 0.236448 0.958789
vt 0.234584 0.967448
vt 0.234586 0.967440
vt 0.236448 0.958788
vt 0.234584 0.967448
vt 0.236448 0.958789
vt 0.042270 0.664917
vt 0.042151 0.665468
vt 0.042152 0.665465
vt 0.042269 0.664920
vt 0.042269 0.664918
vt 0.042152 0.665465
vt 0.172703 0.960155
vt 0.172691 0.960212
vt 0.172692 0.960211
vt 0.172695 0.960169
vt 0.172690 0.960214
vt 0.172699 0.960176
vt 0.160260 0.965724
vt 0.160260 0.965722
vt 0.160260 0.965723
vt 0.160265 0.965702
vt 0.160265 0.965702
vt 0.160260 0.965723
vt 0.234545 0.967627
vt 0.172700 0.960167
vt 0.172690 0.960149
vt 0.172717 0.960088
vt 0.236448 0.958788
vt 0.234586 0.967440
vt 0.042269 0.664916
vt 0.042151 0.665468
vt 0.172704 0.960171
vt 0.172691 0.960210
vt 0.160260 0.965724
vt 0.160260 0.965722
vt 0.172717 0.960155
vt 0.160269 0.965681
vt 0.160268 0.965684
vt 0.160269 0.965681
vt 0.160268 0.965684
vt 0.224151 0.968597
vt 0.224152 0.968596
vt 0.224148 0.968614
vt 0.224148 0.968613
vt 0.224152 0.968596
vt 0.224148 0.968614
vt 0.229073 0.966136
vt 0.229069 0.966153
vt 0.229069 0.966153
vt 0.229073 0.966135
vt 0.229073 0.966135
vt 0.229069 0.966153
vt 0.083976 0.660585
vt 0.083887 0.660998
vt 0.083887 0.660999
vt 0.083976 0.660585
vt 0.083887 0.660998
vt 0.083976 0.660585
vt 0.083976 0.660585
vt 0.083887 0.660999
vt 0.224144 0.968632
vt 0.224144 0.968631
vt 0.224144 0.968632
vt 0.229066 0.966170
vt 0.229065 0.966172
vt 0.229065 0.966172
vn 0.4307 0.0084 -0.9025
vn 0.4307 0.0084 0.9025
vn 0.5300 0.0000 0.8480
vn 0.5300 0.0000 -0.8480
vn 0.5266 0.1466 -0.8373
vn 0.5266 0.1466 0.8373
vn 0.0897 0.5528 0.8285
vn 0.0897 0.5528 -0.8285
vn 0.3990 0.1596 -0.9029
vn 0.3990 0.1596 0.9029
vn 0.4992 -0.3483 0.7934
vn 0.4992 -0.3483 -0.7934
vn -0.4307 0.0084 -0.9025
vn -0.4307 0.0084 0.9025
vn -0.5300 0.0000 0.8480
vn -0.5300 0.0000 -0.8480
vn -0.5266 0.1466 -0.8373
vn -0.5266 0.1466 0.8373
vn -0.0897 0.5528 0.8285
vn -0.0897 0.5528 -0.8285
vn -0.3990 0.1596 -0.9029
vn -0.3990 0.1596 0.9029
vn -0.4992 -0.3483 0.7934
vn -0.4992 -0.3483 -0.7934
vn -0.2077 -0.5081 -0.8359
vn -0.2077 -0.5081 0.8359
vn 0.2077 -0.5081 -0.8359
vn 0.2077 -0.5081 0.8359
vn -0.3127 -0.1882 0.9310
vn -0.3127 -0.1882 -0.9310
vn 0.3127 -0.1882 0.9310
vn 0.3127 -0.1882 -0.9310
vn 0.4499 0.0025 -0.8931
vn 0.4499 0.0025 0.8931
vn -0.4499 0.0025 -0.8931
vn -0.4499 0.0025 0.8931
vn -0.3084 0.2088 0.9280
vn -0.3084 0.2088 -0.9280
vn 0.3084 0.2088 0.9280
vn 0.3084 0.2088 -0.9280
usemtl None
s off
f 38/1/1 8/2/1 2/3/1 39/4/1
f 39/4/2 2/3/2 10/5/2 40/6/2
f 4/7/3 3/8/3 15/9/3 18/10/3
f 16/11/4 13/12/4 3/8/4 4/7/4
f 7/13/5 16/14/5 4/15/5 1/16/5
f 1/16/6 4/15/6 18/17/6 9/18/6
f 27/19/7 5/20/7 21/21/7 28/22/7
f 26/23/8 19/24/8 5/20/8 27/19/8
f 2/3/9 8/2/9 22/25/9
f 10/5/10 2/3/10 22/25/10
f 1/16/11 9/18/11 24/26/11 6/27/11
f 7/13/12 1/16/12 6/27/12 23/28/12
f 38/1/13 41/29/13 12/30/13 8/2/13
f 41/29/14 40/6/14 10/5/14 12/30/14
f 17/31/15 18/10/15 15/9/15 14/32/15
f 16/11/16 17/31/16 14/32/16 13/12/16
f 7/13/17 11/33/17 17/34/17 16/14/17
f 11/33/18 9/18/18 18/17/18 17/34/18
f 29/35/19 28/22/19 21/21/19 20/36/19
f 26/23/20 29/35/20 20/36/20 19/24/20
f 12/30/21 22/25/21 8/2/21
f 10/5/22 22/25/22 12/30/22
f 11/33/23 25/37/23 24/26/23 9/18/23
f 7/13/24 23/28/24 25/37/24 11/33/24
f 13/38/25 14/39/25 29/35/25 26/23/25
f 14/39/26 15/40/26 28/22/26 29/35/26
f 13/38/27 26/23/27 27/19/27 3/41/27
f 3/41/28 27/19/28 28/22/28 15/40/28
f 37/42/29 36/43/29 32/44/29 33/45/29
f 34/46/30 37/42/30 33/45/30 30/47/30
f 35/48/31 31/49/31 32/50/31 36/51/31
f 34/52/32 30/53/32 31/49/32 35/48/32
f 19/54/33 34/55/33 35/56/33 5/57/33
f 5/57/34 35/56/34 36/58/34 21/59/34
f 19/54/35 20/60/35 37/61/35 34/55/35
f 20/60/36 21/59/36 36/58/36 37/61/36
f 33/45/37 32/44/37 40/62/37 41/63/37
f 30/47/38 33/45/38 41/63/38 38/64/38
f 31/49/39 39/65/39 40/66/39 32/50/39
f 30/53/40 38/67/40 39/65/40 31/49/40
